<?xml version="1.0" encoding="UTF-8"?>
<svg width="125px" height="15px" viewBox="0 0 125 15" version="1.1" xmlns="http://www.w3.org/2000/svg" xmlns:xlink="http://www.w3.org/1999/xlink">
    <!-- Generator: Sketch 50.2 (55047) - http://www.bohemiancoding.com/sketch -->
    <title>Group 6</title>
    <desc>Created with Sketch.</desc>
    <defs></defs>
    <g id="Asset-View" stroke="none" stroke-width="1" fill="none" fill-rule="evenodd">
        <g id="Asset-View_4-Copy-4" transform="translate(-11.000000, -27.000000)">
            <g id="Group-6" transform="translate(11.000000, 27.000000)">
                <path d="M39.7788281,0.3359375 L43.7192578,9.77685547 L47.6743359,0.3359375 L48.8315625,0.3359375 L48.8315625,11 L47.9599805,11 L47.9599805,6.29052734 L48.0332227,1.56640625 L48.01125,1.55908203 L44.026875,11 L43.4189648,11 L39.4419141,1.59570312 L39.4199414,1.60302734 L39.5005078,6.29052734 L39.5005078,11 L38.6289258,11 L38.6289258,0.3359375 L39.7788281,0.3359375 Z M56.4048047,11 C56.3462106,10.7265611 56.3047072,10.4970712 56.280293,10.3115234 C56.2558788,10.1259756 56.2436719,9.93798923 56.2436719,9.74755859 L56.2216992,9.74023438 C55.9336118,10.1503927 55.5503149,10.4873034 55.0717969,10.7509766 C54.5932789,11.0146498 54.0439679,11.1464844 53.4238477,11.1464844 C52.6377109,11.1464844 52.0346896,10.9462911 51.6147656,10.5458984 C51.1948417,10.1455058 50.9848828,9.59375352 50.9848828,8.890625 C50.9848828,8.14355095 51.296159,7.55395724 51.9187207,7.12182617 C52.5412824,6.6896951 53.3994281,6.47363281 54.4931836,6.47363281 L56.2436719,6.47363281 L56.2436719,5.4921875 C56.2436719,4.91601274 56.0642303,4.46923987 55.7053418,4.15185547 C55.3464533,3.83447107 54.8349838,3.67578125 54.170918,3.67578125 C53.5459148,3.67578125 53.035666,3.82836761 52.6401563,4.13354492 C52.2446465,4.43872223 52.0468945,4.81591572 52.0468945,5.26513672 L51.1753125,5.2578125 C51.1753125,4.63280938 51.4572921,4.08838123 52.0212598,3.62451172 C52.5852274,3.16064221 53.3139799,2.92871094 54.2075391,2.92871094 C55.1010982,2.92871094 55.809099,3.14721461 56.3315625,3.58422852 C56.854026,4.02124242 57.1152539,4.66210515 57.1152539,5.50683594 L57.1152539,9.40332031 C57.1152539,9.68652485 57.1299022,9.95751824 57.1591992,10.2163086 C57.1884962,10.475099 57.2422066,10.7363268 57.320332,11 L56.4048047,11 Z M53.5263867,10.3774414 C54.1709212,10.3774414 54.7312183,10.2321792 55.2072949,9.94165039 C55.6833715,9.65112159 56.0288271,9.27148672 56.2436719,8.80273438 L56.2436719,7.14746094 L54.4785352,7.14746094 C53.6679842,7.14746094 53.0283422,7.31469559 52.5595898,7.64916992 C52.0908375,7.98364425 51.8564648,8.407224 51.8564648,8.91992188 C51.8564648,9.35449436 52.0017271,9.70605334 52.2922559,9.97460938 C52.5827847,10.2431654 52.9941575,10.3774414 53.5263867,10.3774414 Z M60.2500195,3.07519531 L60.3232617,4.54003906 L60.3452344,4.54736328 C60.5991419,4.04443108 60.9433767,3.64892722 61.3779492,3.36083984 C61.8125217,3.07275247 62.3227705,2.92871094 62.9087109,2.92871094 C63.7632074,2.92871094 64.4101736,3.17773188 64.8496289,3.67578125 C65.2890842,4.17383062 65.5088086,4.97704524 65.5088086,6.08544922 L65.5088086,11 L64.6299023,11 L64.6299023,6.10009766 C64.6299023,5.19677283 64.4687711,4.5693377 64.1465039,4.21777344 C63.8242367,3.86620918 63.3408431,3.69042969 62.6963086,3.69042969 C62.1006025,3.69042969 61.6062227,3.86132642 61.2131543,4.203125 C60.8200859,4.54492358 60.5258994,4.97948955 60.3305859,5.50683594 L60.3305859,11 L59.4516797,11 L59.4516797,3.07519531 L60.2500195,3.07519531 Z M72.8183789,11 C72.7597849,10.7265611 72.7182814,10.4970712 72.6938672,10.3115234 C72.669453,10.1259756 72.6572461,9.93798923 72.6572461,9.74755859 L72.6352734,9.74023438 C72.3471861,10.1503927 71.9638891,10.4873034 71.4853711,10.7509766 C71.0068531,11.0146498 70.4575422,11.1464844 69.8374219,11.1464844 C69.0512851,11.1464844 68.4482638,10.9462911 68.0283398,10.5458984 C67.6084159,10.1455058 67.398457,9.59375352 67.398457,8.890625 C67.398457,8.14355095 67.7097332,7.55395724 68.3322949,7.12182617 C68.9548566,6.6896951 69.8130023,6.47363281 70.9067578,6.47363281 L72.6572461,6.47363281 L72.6572461,5.4921875 C72.6572461,4.91601274 72.4778045,4.46923987 72.118916,4.15185547 C71.7600275,3.83447107 71.248558,3.67578125 70.5844922,3.67578125 C69.9594891,3.67578125 69.4492403,3.82836761 69.0537305,4.13354492 C68.6582207,4.43872223 68.4604688,4.81591572 68.4604688,5.26513672 L67.5888867,5.2578125 C67.5888867,4.63280938 67.8708663,4.08838123 68.434834,3.62451172 C68.9988016,3.16064221 69.7275541,2.92871094 70.6211133,2.92871094 C71.5146724,2.92871094 72.2226732,3.14721461 72.7451367,3.58422852 C73.2676003,4.02124242 73.5288281,4.66210515 73.5288281,5.50683594 L73.5288281,9.40332031 C73.5288281,9.68652485 73.5434764,9.95751824 73.5727734,10.2163086 C73.6020705,10.475099 73.6557809,10.7363268 73.7339063,11 L72.8183789,11 Z M69.9399609,10.3774414 C70.5844954,10.3774414 71.1447925,10.2321792 71.6208691,9.94165039 C72.0969457,9.65112159 72.4424013,9.27148672 72.6572461,8.80273438 L72.6572461,7.14746094 L70.8921094,7.14746094 C70.0815584,7.14746094 69.4419164,7.31469559 68.9731641,7.64916992 C68.5044117,7.98364425 68.2700391,8.407224 68.2700391,8.91992188 C68.2700391,9.35449436 68.4153013,9.70605334 68.7058301,9.97460938 C68.9963589,10.2431654 69.4077317,10.3774414 69.9399609,10.3774414 Z M75.5210156,7.10351562 C75.5210156,5.81444668 75.7859056,4.79639045 76.3156934,4.04931641 C76.8454812,3.30224236 77.6010888,2.92871094 78.5825391,2.92871094 C79.153831,2.92871094 79.639666,3.04833865 80.0400586,3.28759766 C80.4404512,3.52685667 80.7724792,3.86865012 81.0361523,4.31298828 L81.058125,4.30566406 L81.1606641,3.07519531 L81.9004102,3.07519531 L81.9004102,10.8974609 C81.9004102,11.9375052 81.6220926,12.7468233 81.0654492,13.3254395 C80.5088058,13.9040556 79.7153567,14.1933594 78.6850781,14.1933594 C78.2798027,14.1933594 77.8647677,14.1469731 77.4399609,14.0541992 C77.0151541,13.9614253 76.6318572,13.8271493 76.2900586,13.6513672 L76.5171094,12.9482422 C76.8637908,13.1142586 77.2080256,13.2399898 77.5498242,13.3254395 C77.8916228,13.4108891 78.2651542,13.4536133 78.6704297,13.4536133 C79.4565664,13.4536133 80.0449395,13.2302268 80.4355664,12.7834473 C80.8261934,12.3366677 81.0215039,11.7080119 81.0215039,10.8974609 L81.0215039,9.93066406 L80.9995313,9.92333984 C80.7358581,10.3188496 80.4038301,10.621581 80.0034375,10.831543 C79.6030449,11.041505 79.124534,11.1464844 78.5678906,11.1464844 C77.5962061,11.1464844 76.8454812,10.7998082 76.3156934,10.1064453 C75.7859056,9.41308247 75.5210156,8.46338494 75.5210156,7.25732422 L75.5210156,7.10351562 Z M76.3999219,7.25732422 C76.3999219,8.22900876 76.5915703,8.99438197 76.974873,9.5534668 C77.3581757,10.1125516 77.9428867,10.3920898 78.7290234,10.3920898 C79.3051982,10.3920898 79.7788263,10.2639173 80.1499219,10.0075684 C80.5210175,9.75121942 80.8115419,9.39355698 81.0215039,8.93457031 L81.0215039,5.2578125 C80.8261904,4.78906016 80.5490936,4.41064597 80.1902051,4.12255859 C79.8313166,3.83447122 79.3491437,3.69042969 78.7436719,3.69042969 C77.9575351,3.69042969 77.3703828,4.00292656 76.9821973,4.62792969 C76.5940117,5.25293281 76.3999219,6.07811987 76.3999219,7.10351562 L76.3999219,7.25732422 Z M87.2763867,11.1464844 C86.2216939,11.1464844 85.368431,10.7888219 84.7165723,10.0734863 C84.0647135,9.35815072 83.7387891,8.42432217 83.7387891,7.27197266 L83.7387891,6.86914062 C83.7387891,5.71190828 84.0622722,4.76587281 84.709248,4.03100586 C85.3562239,3.2961389 86.1508937,2.92871094 87.0932813,2.92871094 C88.0844971,2.92871094 88.8523117,3.23022159 89.396748,3.83325195 C89.9411844,4.43628231 90.2133984,5.26269006 90.2133984,6.3125 L90.2133984,7.05957031 L84.6176953,7.05957031 L84.6176953,7.27197266 C84.6176953,8.18018032 84.8593921,8.92968455 85.342793,9.52050781 C85.8261938,10.1113311 86.4707186,10.4067383 87.2763867,10.4067383 C87.7597876,10.4067383 88.1833673,10.3371589 88.5471387,10.197998 C88.91091,10.0588372 89.2563656,9.83789214 89.5835156,9.53515625 L89.9570508,10.1357422 C89.6591977,10.4482438 89.2954318,10.6948233 88.8657422,10.8754883 C88.4360525,11.0561532 87.9062727,11.1464844 87.2763867,11.1464844 Z M87.0932813,3.67578125 C86.4340983,3.67578125 85.886008,3.92114012 85.4489941,4.41186523 C85.0119802,4.90259034 84.7446489,5.53857031 84.6469922,6.31982422 L89.3418164,6.31982422 L89.3418164,6.10009766 C89.3418164,5.39696914 89.1440645,4.81714095 88.7485547,4.3605957 C88.3530449,3.90405045 87.8012926,3.67578125 87.0932813,3.67578125 Z M92.710957,3.07519531 L92.776875,4.46679688 L92.7988477,4.47412109 C93.0527552,3.99072024 93.3957693,3.61230605 93.8279004,3.33886719 C94.2600315,3.06542832 94.7739423,2.92871094 95.3696484,2.92871094 C95.9897687,2.92871094 96.4975761,3.07031108 96.8930859,3.35351562 C97.2885957,3.63672017 97.5669133,4.08105166 97.7280469,4.68652344 L97.7500195,4.68652344 C97.9941614,4.15429421 98.3408376,3.72827308 98.7900586,3.40844727 C99.2392796,3.08862145 99.778825,2.92871094 100.408711,2.92871094 C101.243676,2.92871094 101.882097,3.19115948 102.323994,3.71606445 C102.765891,4.24096942 102.986836,5.06981855 102.986836,6.20263672 L102.986836,11 L102.10793,11 L102.10793,6.20263672 C102.10793,5.26024919 101.946798,4.60595886 101.624531,4.23974609 C101.302264,3.87353333 100.828636,3.69042969 100.203633,3.69042969 C99.5053871,3.70019536 98.9560762,3.94067147 98.5556836,4.41186523 C98.155291,4.883059 97.9306838,5.41405955 97.8818555,6.00488281 L97.8818555,11 L97.0029492,11 L97.0029492,6.12207031 C97.0029492,5.22851116 96.8393766,4.59985533 96.5122266,4.23608398 C96.1850765,3.87231263 95.7114484,3.69042969 95.0913281,3.69042969 C94.466325,3.69042969 93.9670624,3.8637678 93.5935254,4.21044922 C93.2199884,4.55713064 92.9526571,5.00146213 92.7915234,5.54345703 L92.7915234,11 L91.905293,11 L91.905293,3.07519531 L92.710957,3.07519531 Z M108.296895,11.1464844 C107.242202,11.1464844 106.388939,10.7888219 105.73708,10.0734863 C105.085221,9.35815072 104.759297,8.42432217 104.759297,7.27197266 L104.759297,6.86914062 C104.759297,5.71190828 105.08278,4.76587281 105.729756,4.03100586 C106.376732,3.2961389 107.171402,2.92871094 108.113789,2.92871094 C109.105005,2.92871094 109.87282,3.23022159 110.417256,3.83325195 C110.961692,4.43628231 111.233906,5.26269006 111.233906,6.3125 L111.233906,7.05957031 L105.638203,7.05957031 L105.638203,7.27197266 C105.638203,8.18018032 105.8799,8.92968455 106.363301,9.52050781 C106.846702,10.1113311 107.491226,10.4067383 108.296895,10.4067383 C108.780295,10.4067383 109.203875,10.3371589 109.567646,10.197998 C109.931418,10.0588372 110.276873,9.83789214 110.604023,9.53515625 L110.977559,10.1357422 C110.679706,10.4482438 110.31594,10.6948233 109.88625,10.8754883 C109.45656,11.0561532 108.92678,11.1464844 108.296895,11.1464844 Z M108.113789,3.67578125 C107.454606,3.67578125 106.906516,3.92114012 106.469502,4.41186523 C106.032488,4.90259034 105.765157,5.53857031 105.6675,6.31982422 L110.362324,6.31982422 L110.362324,6.10009766 C110.362324,5.39696914 110.164572,4.81714095 109.769063,4.3605957 C109.373553,3.90405045 108.8218,3.67578125 108.113789,3.67578125 Z M113.768086,3.07519531 L113.841328,4.54003906 L113.863301,4.54736328 C114.117208,4.04443108 114.461443,3.64892722 114.896016,3.36083984 C115.330588,3.07275247 115.840837,2.92871094 116.426777,2.92871094 C117.281274,2.92871094 117.92824,3.17773188 118.367695,3.67578125 C118.807151,4.17383062 119.026875,4.97704524 119.026875,6.08544922 L119.026875,11 L118.147969,11 L118.147969,6.10009766 C118.147969,5.19677283 117.986838,4.5693377 117.66457,4.21777344 C117.342303,3.86620918 116.858909,3.69042969 116.214375,3.69042969 C115.618669,3.69042969 115.124289,3.86132642 114.731221,4.203125 C114.338152,4.54492358 114.043966,4.97948955 113.848652,5.50683594 L113.848652,11 L112.969746,11 L112.969746,3.07519531 L113.768086,3.07519531 Z M122.586445,1.04638672 L122.586445,3.07519531 L124.249043,3.07519531 L124.249043,3.79296875 L122.586445,3.79296875 L122.586445,8.95654297 C122.586445,9.48388936 122.673114,9.8537587 122.846455,10.0661621 C123.019796,10.2785655 123.255389,10.3847656 123.553242,10.3847656 C123.680196,10.3847656 123.794941,10.3786622 123.89748,10.3664551 C124.00002,10.354248 124.131855,10.3334962 124.292988,10.3041992 L124.4175,10.9633789 C124.285663,11.0170901 124.129415,11.061035 123.94875,11.0952148 C123.768085,11.1293947 123.584981,11.1464844 123.399434,11.1464844 C122.852556,11.1464844 122.433859,10.9768083 122.14333,10.6374512 C121.852801,10.298094 121.707539,9.73779688 121.707539,8.95654297 L121.707539,3.79296875 L120.403828,3.79296875 L120.403828,3.07519531 L121.707539,3.07519531 L121.707539,1.04638672 L122.586445,1.04638672 Z" id="Asset-Management" fill="#FFC502"></path>
                <path d="M0.03,11 L2.76,0.29 L5.91,0.29 L8.58,11 L5.97,11 L5.58,8.96 L3.015,8.96 L2.64,11 L0.03,11 Z M5.205,7.01 L4.29,2.24 L4.26,2.24 L3.375,7.01 L5.205,7.01 Z" id="Combined-Shape" fill="#FFFFFF"></path>
                <path d="M8.985,8.42 L11.145,8.42 C11.1650001,8.85000215 11.2149996,9.14999915 11.295,9.32 C11.4350007,9.5800013 11.6899981,9.71 12.06,9.71 C12.6400029,9.71 12.93,9.43500275 12.93,8.885 C12.93,8.43499775 12.6200031,8.10500105 12,7.895 C10.8699943,7.5149981 10.1300017,7.18000145 9.78,6.89 C9.28999755,6.49999805 9.045,5.91000395 9.045,5.12 C9.045,3.48999185 10.0749897,2.675 12.135,2.675 C14.0950098,2.675 15.075,3.4349924 15.075,4.955 L15.075,5.225 L12.915,5.225 L12.915,5.075 C12.915,4.474997 12.6500026,4.175 12.12,4.175 C11.5699972,4.175 11.295,4.4249975 11.295,4.925 C11.295,5.29500185 11.6299966,5.5899989 12.3,5.81 C13.310005,6.14000165 13.9349988,6.37999925 14.175,6.53 C14.8450033,6.9700022 15.18,7.64499545 15.18,8.555 C15.18,9.38500415 14.9100027,10.0349976 14.37,10.505 C13.8299973,10.9750023 13.0650049,11.21 12.075,11.21 C10.0149897,11.21 8.985,10.4000081 8.985,8.78 L8.985,8.42 Z" id="Path" fill="#FFFFFF"></path>
                <path d="M15.93,8.42 L18.09,8.42 C18.1100001,8.85000215 18.1599996,9.14999915 18.24,9.32 C18.3800007,9.5800013 18.6349982,9.71 19.005,9.71 C19.5850029,9.71 19.875,9.43500275 19.875,8.885 C19.875,8.43499775 19.5650031,8.10500105 18.945,7.895 C17.8149944,7.5149981 17.0750018,7.18000145 16.725,6.89 C16.2349976,6.49999805 15.99,5.91000395 15.99,5.12 C15.99,3.48999185 17.0199897,2.675 19.08,2.675 C21.0400098,2.675 22.02,3.4349924 22.02,4.955 L22.02,5.225 L19.86,5.225 L19.86,5.075 C19.86,4.474997 19.5950027,4.175 19.065,4.175 C18.5149973,4.175 18.24,4.4249975 18.24,4.925 C18.24,5.29500185 18.5749967,5.5899989 19.245,5.81 C20.2550051,6.14000165 20.8799988,6.37999925 21.12,6.53 C21.7900034,6.9700022 22.125,7.64499545 22.125,8.555 C22.125,9.38500415 21.8550027,10.0349976 21.315,10.505 C20.7749973,10.9750023 20.010005,11.21 19.02,11.21 C16.9599897,11.21 15.93,10.4000081 15.93,8.78 L15.93,8.42 Z" id="Path" fill="#FFFFFF"></path>
                <path d="M29.43,7.34 L25.335,7.34 L25.335,7.835 C25.335,8.4950033 25.3949994,8.9649986 25.515,9.245 C25.6450006,9.55500155 25.8799983,9.71 26.22,9.71 C26.5200015,9.71 26.7349993,9.59500115 26.865,9.365 C26.9950006,9.13499885 27.0749998,8.75500265 27.105,8.225 L29.355,8.225 C29.3149998,10.2150099 28.2650103,11.21 26.205,11.21 C24.8249931,11.21 23.8950024,10.7500046 23.415,9.83 C23.0749983,9.19999685 22.905,8.14000745 22.905,6.65 C22.905,5.37999365 23.1249978,4.43000315 23.565,3.8 C24.0950026,3.04999625 24.9749938,2.675 26.205,2.675 C27.5850069,2.675 28.4999977,3.1049957 28.95,3.965 C29.2700016,4.5850031 29.43,5.70999185 29.43,7.34 Z M25.335,5.93 L27.09,5.93 C27.09,5.41999745 27.0600003,5.0550011 27,4.835 C26.8799994,4.3949978 26.6350019,4.175 26.265,4.175 C25.854998,4.175 25.5800007,4.37999795 25.44,4.79 C25.3699997,5.02000115 25.335,5.39999735 25.335,5.93 Z" id="Combined-Shape" fill="#FFFFFF"></path>
                <path d="M30.705,8.9 L30.705,4.565 L29.7,4.565 L29.7,2.885 L30.705,2.885 L30.705,0.5 L33.135,0.5 L33.135,2.885 L34.26,2.885 L34.26,4.565 L33.135,4.565 L33.135,8.66 C33.135,8.9400014 33.1924994,9.13499945 33.3075,9.245 C33.4225006,9.35500055 33.6249986,9.41 33.915,9.41 C34.0050005,9.41 34.1199993,9.4000001 34.26,9.38 L34.26,11 C33.7999977,11.0600003 33.3350024,11.09 32.865,11.09 C31.9949957,11.09 31.4250014,10.9600013 31.155,10.7 C30.8549985,10.4199986 30.705,9.8200046 30.705,8.9 Z" id="Path" fill="#FFFFFF"></path>
            </g>
        </g>
    </g>
</svg>