<?xml version="1.0" encoding="UTF-8" standalone="no"?>
<!DOCTYPE svg PUBLIC "-//W3C//DTD SVG 1.1//EN" "http://www.w3.org/Graphics/SVG/1.1/DTD/svg11.dtd">
<svg width="100%" height="100%" viewBox="0 0 100 100" version="1.1" xmlns="http://www.w3.org/2000/svg" xmlns:xlink="http://www.w3.org/1999/xlink" xml:space="preserve" xmlns:serif="http://www.serif.com/" style="fill-rule:evenodd;clip-rule:evenodd;stroke-linejoin:round;stroke-miterlimit:1.41421;">
    <g transform="matrix(1,0,0,1,-130,0)">
        <g id="Artboard1" transform="matrix(1.0049,0,0,1.0049,1000.6,78.5181)">
            <rect x="-866.353" y="-78.135" width="99.512" height="99.512" style="fill:none;"/>
            <clipPath id="_clip1">
                <rect x="-866.353" y="-78.135" width="99.512" height="99.512"/>
            </clipPath>
            <g clip-path="url(#_clip1)">
                <g transform="matrix(0.995123,0,0,0.995123,-868.828,-78.3849)">
                    <rect x="-0.794" y="-2.767" width="108.671" height="108.647" style="fill:rgb(235,231,245);"/>
                </g>
                <g transform="matrix(0.166474,0,0,0.166474,-896.049,-88.135)">
                    <path d="M254.302,549.362C254.302,549.362 316.971,559.441 303.513,506.757C303.513,506.757 270.153,334.489 326.678,212.097C326.678,212.097 374.905,123.734 500.187,131.96C500.187,131.96 625.664,132.723 654.812,270.482C654.812,270.482 678.236,360.081 655.984,508.148C655.984,508.148 641.87,553.489 704.202,550.072C704.202,550.072 710.95,604.133 628.415,626.107C628.415,626.107 428.033,661.159 315.569,622.112C315.569,622.112 255.407,605.566 254.302,549.362Z" style="fill:rgb(81,54,42);"/>
                </g>
                <g transform="matrix(0.165474,0,0,0.172795,-736.617,183.585)">
                    <rect x="-518.041" y="-1090.29" width="78.996" height="88.618" style="fill:rgb(252,188,133);"/>
                </g>
                <g transform="matrix(0.166474,0,0,0.166474,-896.049,-88.135)">
                    <path d="M536.186,292.194C536.186,292.194 472.071,328.131 408.541,315.706C408.541,315.706 373.97,314.539 354.72,358.13C354.72,358.13 314.732,475.351 424.263,522.139C424.263,522.139 542.372,563.426 595.656,473.342C595.656,473.342 618.424,441.331 609.657,390.51C603.459,354.577 596.646,320.728 536.186,292.194Z" style="fill:rgb(253,204,154);"/>
                </g>
                <g transform="matrix(0.166474,0,0,0.166474,-895.272,-88.0923)">
                    <ellipse cx="551.296" cy="383.071" rx="14.582" ry="15.994" style="fill:rgb(59,37,25);"/>
                </g>
                <g transform="matrix(0.166474,0,0,0.166474,-918.519,-87.9776)">
                    <ellipse cx="551.296" cy="383.071" rx="14.582" ry="15.994" style="fill:rgb(59,37,25);"/>
                </g>
                <g transform="matrix(0.20877,0,0,0.190688,-715.369,200.05)">
                    <path d="M-660.79,-937.651C-660.79,-937.651 -646.839,-1013.27 -481.054,-1033.48C-481.054,-1033.48 -322.59,-1023.88 -290.574,-936.918L-660.79,-937.651Z" style="fill:rgb(87,67,166);"/>
                    <clipPath id="_clip2">
                        <path d="M-660.79,-937.651C-660.79,-937.651 -646.839,-1013.27 -481.054,-1033.48C-481.054,-1033.48 -322.59,-1023.88 -290.574,-936.918L-660.79,-937.651Z"/>
                    </clipPath>
                    <g clip-path="url(#_clip2)">
                        <g transform="matrix(1,0,0,1,-5.19525,0.760608)">
                            <path d="M-533.459,-1026.54C-533.459,-1026.54 -480.384,-965.303 -418.39,-1025.48L-439.309,-1030.25C-439.309,-1030.25 -472.854,-997.266 -515.475,-1030.82L-533.459,-1026.54Z" style="fill:rgb(244,108,32);"/>
                        </g>
                        <g transform="matrix(1,0,0,1,-5.91366,-16.1724)">
                            <path d="M-533.459,-1026.54C-533.459,-1026.54 -478.44,-959.351 -418.39,-1025.48L-439.309,-1030.25C-439.309,-1030.25 -469.645,-1004.64 -515.475,-1030.82L-533.459,-1026.54Z" style="fill:rgb(252,188,133);"/>
                        </g>
                    </g>
                </g>
                <g transform="matrix(0.172795,0,0,0.172795,-733.043,182.911)">
                    <path d="M-516.7,-1117.73C-516.7,-1117.73 -505.309,-1112.65 -495.293,-1110.87C-495.293,-1110.87 -476.744,-1106.99 -459.636,-1110.59C-459.636,-1110.59 -443.693,-1114.19 -437.312,-1118.25C-437.312,-1118.25 -438.692,-1108.61 -460.159,-1105.79C-460.159,-1105.79 -496.085,-1098.01 -516.7,-1117.73Z" style="fill:rgb(247,148,94);"/>
                </g>
            </g>
        </g>
    </g>
</svg>
