<?xml version="1.0" encoding="UTF-8" standalone="no"?>
<!DOCTYPE svg PUBLIC "-//W3C//DTD SVG 1.1//EN" "http://www.w3.org/Graphics/SVG/1.1/DTD/svg11.dtd">
<svg width="100%" height="100%" viewBox="0 0 100 100" version="1.1" xmlns="http://www.w3.org/2000/svg" xmlns:xlink="http://www.w3.org/1999/xlink" xml:space="preserve" xmlns:serif="http://www.serif.com/" style="fill-rule:evenodd;clip-rule:evenodd;stroke-linejoin:round;stroke-miterlimit:1.41421;">
    <g id="Artboard1" transform="matrix(1.0049,0,0,1.0049,870.599,78.5181)">
        <rect x="-866.353" y="-78.135" width="99.512" height="99.512" style="fill:none;"/>
        <clipPath id="_clip1">
            <rect x="-866.353" y="-78.135" width="99.512" height="99.512"/>
        </clipPath>
        <g clip-path="url(#_clip1)">
            <g transform="matrix(0.995123,0,0,0.995123,-866.353,-78.1351)">
                <rect x="-0.794" y="-2.767" width="108.671" height="108.647" style="fill:rgb(235,231,245);"/>
            </g>
            <g transform="matrix(0.172795,0,0,0.172795,-757.49,104.713)">
                <g transform="matrix(1,0,0,1,144.361,458.451)">
                    <ellipse cx="-624.73" cy="-1203.65" rx="34.422" ry="40.273" style="fill:rgb(252,188,133);"/>
                </g>
                <g transform="matrix(1,0,0,1,445.558,457.821)">
                    <ellipse cx="-624.73" cy="-1203.65" rx="34.422" ry="40.273" style="fill:rgb(252,188,133);"/>
                </g>
                <g transform="matrix(0.957635,0,0,1,129.494,462.081)">
                    <rect x="-518.041" y="-1090.29" width="78.996" height="88.618" style="fill:rgb(252,188,133);"/>
                </g>
                <g transform="matrix(1.06198,0,0,1.17243,184.902,695.246)">
                    <circle cx="-484.628" cy="-1235.94" r="135.778" style="fill:rgb(253,204,154);"/>
                </g>
                <g transform="matrix(1,0,0,1,147.24,452.549)">
                    <path d="M-627.757,-1189.41C-627.757,-1189.41 -641.002,-1202.47 -641.517,-1311.06C-641.517,-1311.06 -653.95,-1404.69 -550.946,-1435.93C-550.946,-1435.93 -433.033,-1482.51 -354.806,-1399.98C-354.806,-1399.98 -261.635,-1370.17 -331.729,-1188.38C-331.729,-1188.38 -338.647,-1172.11 -343.678,-1231.58C-343.678,-1231.58 -346.728,-1268.8 -368.958,-1275.1C-368.958,-1275.1 -393.606,-1289.01 -404.168,-1309.56C-404.168,-1309.56 -455.08,-1281.42 -541.193,-1291.69C-541.193,-1291.69 -603.411,-1295.7 -611.958,-1245.84C-614.948,-1233.09 -606.166,-1162.12 -627.757,-1189.41Z" style="fill:rgb(81,54,42);"/>
                </g>
                <g transform="matrix(1.11994,0,0,1,201.581,454.34)">
                    <ellipse cx="-408.225" cy="-1209.76" rx="13.873" ry="18.102" style="fill:rgb(59,37,25);"/>
                </g>
                <g transform="matrix(1.11994,0,0,1,56.7485,452.915)">
                    <ellipse cx="-408.225" cy="-1209.76" rx="13.873" ry="18.102" style="fill:rgb(59,37,25);"/>
                </g>
                <g transform="matrix(1,0,0,1,147.24,452.549)">
                    <path d="M-516.7,-1117.73C-516.7,-1117.73 -505.309,-1112.65 -495.293,-1110.87C-495.293,-1110.87 -476.744,-1106.99 -459.636,-1110.59C-459.636,-1110.59 -443.693,-1114.19 -437.312,-1118.25C-437.312,-1118.25 -438.692,-1108.61 -460.159,-1105.79C-460.159,-1105.79 -496.085,-1098.01 -516.7,-1117.73Z" style="fill:rgb(247,148,94);"/>
                </g>
                <g transform="matrix(1.2082,0,0,1.10355,250.722,557.805)">
                    <path d="M-660.79,-937.651C-660.79,-937.651 -646.839,-1013.27 -481.054,-1033.48C-481.054,-1033.48 -322.59,-1023.88 -290.574,-936.918L-660.79,-937.651Z" style="fill:rgb(87,67,166);"/>
                    <clipPath id="_clip2">
                        <path d="M-660.79,-937.651C-660.79,-937.651 -646.839,-1013.27 -481.054,-1033.48C-481.054,-1033.48 -322.59,-1023.88 -290.574,-936.918L-660.79,-937.651Z"/>
                    </clipPath>
                    <g clip-path="url(#_clip2)">
                        <g transform="matrix(1,0,0,1,-5.19525,0.760608)">
                            <path d="M-533.459,-1026.54C-533.459,-1026.54 -480.384,-965.303 -418.39,-1025.48L-439.309,-1030.25C-439.309,-1030.25 -472.854,-997.266 -515.475,-1030.82L-533.459,-1026.54Z" style="fill:rgb(244,108,32);"/>
                        </g>
                        <g transform="matrix(1,0,0,1,-5.91366,-16.1724)">
                            <path d="M-533.459,-1026.54C-533.459,-1026.54 -478.44,-959.351 -418.39,-1025.48L-439.309,-1030.25C-439.309,-1030.25 -469.645,-1004.64 -515.475,-1030.82L-533.459,-1026.54Z" style="fill:rgb(252,188,133);"/>
                        </g>
                    </g>
                </g>
            </g>
        </g>
    </g>
</svg>
