<?xml version="1.0" encoding="UTF-8" standalone="no"?>
<!DOCTYPE svg PUBLIC "-//W3C//DTD SVG 1.1//EN" "http://www.w3.org/Graphics/SVG/1.1/DTD/svg11.dtd">
<svg width="100%" height="100%" viewBox="0 0 16 16" version="1.1" xmlns="http://www.w3.org/2000/svg" xmlns:xlink="http://www.w3.org/1999/xlink" xml:space="preserve" xmlns:serif="http://www.serif.com/" style="fill-rule:evenodd;clip-rule:evenodd;stroke-linejoin:round;stroke-miterlimit:1.41421;">
    <g transform="matrix(1,0,0,1,-179.717,-148.495)">
        <g id="Page-57" serif:id="Page 57" transform="matrix(0.8,0,0,0.8,179.717,148.495)">
            <rect x="0" y="0" width="20" height="20" style="fill:none;"/>
            <g transform="matrix(0.972238,0,0,0.972238,-174.45,-144.095)">
                <path d="M194.895,151.133L193.743,152.768C195.605,154.08 196.717,156.221 196.717,158.495C196.717,162.355 193.577,165.495 189.717,165.495C185.857,165.495 182.717,162.355 182.717,158.495C182.717,156.225 183.826,154.086 185.683,152.774L184.529,151.141C182.142,152.826 180.717,155.575 180.717,158.495C180.717,163.458 184.755,167.495 189.717,167.495C194.68,167.495 198.717,163.458 198.717,158.495C198.717,155.571 197.288,152.82 194.895,151.133ZM190.717,155.495L188.717,155.495L188.717,149.495L190.717,149.495L190.717,155.495Z" style="fill:rgb(153,153,153);"/>
            </g>
        </g>
    </g>
</svg>
